G04 DipTrace 2.4.0.2*
%INВерхняямаска.gts*%
%MOIN*%
%ADD21R,0.0669X0.0669*%
%ADD22C,0.0669*%
%ADD25R,0.0709X0.0709*%
%ADD27C,0.0709*%
%ADD30R,0.0787X0.0787*%
%ADD31C,0.0787*%
%ADD39C,0.1181*%
%ADD53C,0.0559*%
%ADD55C,0.1063*%
%ADD59C,0.0866*%
%ADD60R,0.0866X0.0866*%
%ADD61R,0.0925X0.0669*%
%ADD63O,0.1299X0.1457*%
%ADD65C,0.1378*%
%ADD68C,0.0748*%
%ADD69R,0.0748X0.0748*%
%ADD70R,0.0579X0.0579*%
%ADD72C,0.0579*%
%ADD74C,0.0709*%
%ADD77R,0.0787X0.0709*%
%ADD79R,0.0709X0.0787*%
%FSLAX44Y44*%
G04*
G70*
G90*
G75*
G01*
%LNTopMask*%
%LPD*%
D79*
X18000Y17937D3*
X19102D3*
D77*
X22437Y5937D3*
Y7039D3*
X20437Y5937D3*
Y7039D3*
D79*
X14687Y9437D3*
X13585D3*
D25*
X10624Y10062D3*
D74*
X9624D3*
D79*
X22312Y17937D3*
X21210D3*
X17750Y9437D3*
X16647D3*
X28937Y9500D3*
X27835D3*
D72*
X25437Y6437D3*
D70*
X26437D3*
D39*
X35187Y5187D3*
X5187D3*
Y25687D3*
X35187D3*
D69*
X6437Y12437D3*
D68*
Y13437D3*
Y14437D3*
Y15437D3*
Y16437D3*
Y17437D3*
D25*
X30437Y10937D3*
D27*
Y9953D3*
X31224D3*
Y10937D3*
D65*
X32291Y8075D3*
Y12815D3*
D79*
X14665Y7062D3*
X13562D3*
D30*
X17187Y20250D3*
D63*
X16400Y23006D3*
D31*
X18171Y20250D3*
D63*
X19943Y23006D3*
D31*
X19156Y20250D3*
D30*
X23062Y20312D3*
D63*
X22275Y23068D3*
D31*
X24046Y20312D3*
D63*
X25818Y23068D3*
D31*
X25031Y20312D3*
D30*
X28812D3*
D63*
X28024Y23068D3*
D31*
X29796Y20312D3*
D63*
X31568Y23068D3*
D31*
X30780Y20312D3*
D79*
X25386Y9488D3*
X26488D3*
D77*
X15187Y18937D3*
Y20039D3*
X11687Y18937D3*
Y20039D3*
X8187Y18937D3*
Y20039D3*
D61*
X8502Y6562D3*
X11750D3*
D60*
X7937Y21937D3*
D59*
X8937D3*
X9937D3*
X10937D3*
X11937D3*
X12937D3*
Y24937D3*
X11937D3*
X10937D3*
X9937D3*
X8937D3*
X7937D3*
D25*
X12937Y12437D3*
D74*
X13937D3*
X14937D3*
X15937D3*
X16937D3*
X17937D3*
X18937D3*
X19937D3*
X20937D3*
X21937D3*
X22937D3*
X23937D3*
X24937D3*
X25937D3*
Y15437D3*
X24937D3*
X23937D3*
X22937D3*
X21937D3*
X20937D3*
X19937D3*
X18937D3*
X17937D3*
X16937D3*
X15937D3*
X14937D3*
X13937D3*
X12937D3*
D21*
X27937Y17937D3*
D22*
Y16937D3*
Y15937D3*
Y14937D3*
X30937D3*
Y15937D3*
Y16937D3*
Y17937D3*
D55*
X34937D3*
Y15969D3*
D53*
X22437Y9437D3*
X20537D3*
M02*
