G04 DipTrace 2.4.0.2*
%INНижняямаркировка.gbo*%
%MOIN*%
%ADD10C,0.0098*%
%ADD12C,0.003*%
%ADD81C,0.0077*%
%FSLAX44Y44*%
G04*
G70*
G90*
G75*
G01*
%LNBotSilk*%
%LPD*%
X13122Y19518D2*
D10*
Y19754D1*
X13752Y19518D2*
Y19754D1*
X9622Y19518D2*
Y19754D1*
X10252Y19518D2*
Y19754D1*
X6372Y19518D2*
Y19754D1*
X7002Y19518D2*
Y19754D1*
X33870Y20252D2*
X34106D1*
X33870Y19622D2*
X34106D1*
X34129Y21497D2*
X33893D1*
X34129Y22126D2*
X33893D1*
X33502Y16606D2*
Y16370D1*
X32872Y16606D2*
Y16370D1*
X22748Y17620D2*
Y17856D1*
X23377Y17620D2*
Y17856D1*
X21252D2*
Y17620D1*
X20622Y17856D2*
Y17620D1*
X24872Y17643D2*
Y17878D1*
X25502Y17643D2*
Y17878D1*
X20002Y7583D2*
D12*
X20181D1*
X20002Y7553D2*
X20181D1*
X14018Y7523D2*
X14586D1*
X14795D2*
X16262D1*
X16531D2*
X18356D1*
X18536D2*
X18955D1*
X19900D2*
X20282D1*
X20720D2*
X22156D1*
X14018Y7494D2*
X14586D1*
X14795D2*
X16294D1*
X16531D2*
X18356D1*
X18536D2*
X18955D1*
X19822D2*
X20356D1*
X20720D2*
X22202D1*
X14018Y7464D2*
X14586D1*
X14795D2*
X16318D1*
X16531D2*
X18356D1*
X18536D2*
X18955D1*
X19769D2*
X20409D1*
X20720D2*
X22235D1*
X14018Y7434D2*
X14586D1*
X14795D2*
X16335D1*
X16531D2*
X18356D1*
X18536D2*
X18955D1*
X19729D2*
X20433D1*
X20720D2*
X22260D1*
X14018Y7404D2*
X14586D1*
X14795D2*
X16344D1*
X16531D2*
X18356D1*
X18536D2*
X18955D1*
X19709D2*
X20442D1*
X20720D2*
X22268D1*
X14018Y7374D2*
X14586D1*
X14795D2*
X16348D1*
X16531D2*
X18356D1*
X18536D2*
X18955D1*
X19686D2*
X20447D1*
X20720D2*
X22273D1*
X14018Y7344D2*
X14586D1*
X14795D2*
X16350D1*
X16531D2*
X18356D1*
X18536D2*
X18955D1*
X19661D2*
X20449D1*
X20720D2*
X22275D1*
X14018Y7314D2*
X14586D1*
X14795D2*
X16351D1*
X16531D2*
X18356D1*
X18536D2*
X18955D1*
X19638D2*
X20510D1*
X20720D2*
X22275D1*
X14018Y7284D2*
X14586D1*
X14795D2*
X16351D1*
X16531D2*
X18356D1*
X18536D2*
X18955D1*
X19620D2*
X20510D1*
X20720D2*
X22276D1*
X14018Y7254D2*
X14586D1*
X14795D2*
X16351D1*
X16531D2*
X18356D1*
X18536D2*
X18955D1*
X19603D2*
X20510D1*
X20720D2*
X22276D1*
X14018Y7224D2*
X14586D1*
X14795D2*
X16351D1*
X16531D2*
X18356D1*
X18536D2*
X18955D1*
X19584D2*
X20510D1*
X20720D2*
X22276D1*
X14018Y7194D2*
X14586D1*
X14795D2*
X16351D1*
X16531D2*
X18356D1*
X18536D2*
X18955D1*
X19559D2*
X20510D1*
X20720D2*
X22276D1*
X14018Y7164D2*
X14586D1*
X14795D2*
X16351D1*
X16531D2*
X18356D1*
X18536D2*
X18955D1*
X19533D2*
X20510D1*
X20720D2*
X22276D1*
X14018Y7134D2*
X14586D1*
X14795D2*
X16351D1*
X16531D2*
X18356D1*
X18536D2*
X18955D1*
X19514D2*
X20510D1*
X20720D2*
X22276D1*
X14018Y7105D2*
X14586D1*
X14795D2*
X16351D1*
X16531D2*
X18356D1*
X18536D2*
X18955D1*
X19500D2*
X20510D1*
X20720D2*
X22276D1*
X14018Y7075D2*
X14585D1*
X15813D2*
X16351D1*
X17159D2*
X17728D1*
X18536D2*
X18955D1*
X19486D2*
X20510D1*
X21707D2*
X22276D1*
X14018Y7045D2*
X14581D1*
X15813D2*
X16351D1*
X17159D2*
X17728D1*
X18536D2*
X18955D1*
X19465D2*
X20510D1*
X21707D2*
X22276D1*
X14018Y7015D2*
X14574D1*
X15813D2*
X16351D1*
X17159D2*
X17728D1*
X18536D2*
X18955D1*
X19442D2*
X20510D1*
X21707D2*
X22276D1*
X14018Y6985D2*
X14565D1*
X17159D2*
X17728D1*
X18536D2*
X18955D1*
X19423D2*
X20510D1*
X21707D2*
X22276D1*
X14018Y6955D2*
X14556D1*
X17159D2*
X17728D1*
X18536D2*
X18955D1*
X19412D2*
X20510D1*
X21707D2*
X22276D1*
X14018Y6925D2*
X14137D1*
X17159D2*
X17728D1*
X18536D2*
X18955D1*
X19407D2*
X20510D1*
X21707D2*
X22276D1*
X14526Y6895D2*
X14586D1*
X15843D2*
X16351D1*
X17159D2*
X17728D1*
X18536D2*
X18955D1*
X19344D2*
X20510D1*
X21707D2*
X22276D1*
X14526Y6865D2*
X14586D1*
X15843D2*
X16351D1*
X17159D2*
X17728D1*
X18536D2*
X18955D1*
X19333D2*
X20510D1*
X21707D2*
X22276D1*
X14107Y6835D2*
X14586D1*
X15843D2*
X16351D1*
X17323D2*
X17728D1*
X18536D2*
X18955D1*
X19322D2*
X19983D1*
X20020D2*
X20510D1*
X20720D2*
X22276D1*
X14066Y6805D2*
X14586D1*
X15843D2*
X16351D1*
X17488D2*
X17728D1*
X18536D2*
X18955D1*
X19308D2*
X19947D1*
X20060D2*
X20510D1*
X20720D2*
X22276D1*
X14035Y6775D2*
X14586D1*
X15843D2*
X16351D1*
X17488D2*
X17728D1*
X18536D2*
X18955D1*
X19286D2*
X19923D1*
X20076D2*
X20510D1*
X20720D2*
X22276D1*
X14026Y6745D2*
X14586D1*
X14855D2*
X16351D1*
X17159D2*
X17279D1*
X17668D2*
X17728D1*
X18536D2*
X18955D1*
X19260D2*
X19904D1*
X20085D2*
X20510D1*
X20720D2*
X22276D1*
X14021Y6716D2*
X14586D1*
X14855D2*
X16351D1*
X17159D2*
X17458D1*
X18536D2*
X18955D1*
X19234D2*
X19885D1*
X20089D2*
X20510D1*
X20720D2*
X22276D1*
X14019Y6686D2*
X14586D1*
X14855D2*
X16351D1*
X17159D2*
X17458D1*
X18536D2*
X18955D1*
X19209D2*
X19863D1*
X20091D2*
X20510D1*
X20720D2*
X22276D1*
X14018Y6656D2*
X14586D1*
X14855D2*
X16351D1*
X17159D2*
X17572D1*
X18536D2*
X18955D1*
X19187D2*
X19842D1*
X20091D2*
X20510D1*
X20720D2*
X22276D1*
X14018Y6626D2*
X14586D1*
X14855D2*
X16351D1*
X17159D2*
X17663D1*
X18536D2*
X18955D1*
X19168D2*
X19822D1*
X20091D2*
X20510D1*
X20720D2*
X22276D1*
X14018Y6596D2*
X14586D1*
X14855D2*
X16351D1*
X17159D2*
X17702D1*
X18536D2*
X18955D1*
X19147D2*
X19798D1*
X20091D2*
X20510D1*
X20720D2*
X22276D1*
X14018Y6566D2*
X14586D1*
X14855D2*
X16351D1*
X17159D2*
X17716D1*
X18539D2*
X18955D1*
X19122D2*
X19772D1*
X20092D2*
X20510D1*
X20720D2*
X22274D1*
X14018Y6536D2*
X14586D1*
X14855D2*
X16351D1*
X17159D2*
X17723D1*
X18543D2*
X18955D1*
X19099D2*
X19751D1*
X20092D2*
X20510D1*
X20720D2*
X22268D1*
X14018Y6506D2*
X14586D1*
X14855D2*
X16351D1*
X17159D2*
X17726D1*
X18625D2*
X18955D1*
X19081D2*
X19732D1*
X20092D2*
X20510D1*
X20720D2*
X22232D1*
X14018Y6476D2*
X14586D1*
X14855D2*
X16351D1*
X17159D2*
X17727D1*
X18748D2*
X18955D1*
X19067D2*
X19711D1*
X20092D2*
X20510D1*
X20720D2*
X22130D1*
X14018Y6446D2*
X14586D1*
X14855D2*
X16351D1*
X17159D2*
X17728D1*
X18895D2*
X18955D1*
X19055D2*
X19687D1*
X20092D2*
X20510D1*
X21707D2*
X22006D1*
X14018Y6416D2*
X14586D1*
X14855D2*
X16351D1*
X17159D2*
X17728D1*
X18895D2*
X18955D1*
X19044D2*
X19661D1*
X20092D2*
X20510D1*
X21707D2*
X22006D1*
X14018Y6386D2*
X14586D1*
X14855D2*
X16351D1*
X17159D2*
X17728D1*
X18536D2*
X18625D1*
X19164D2*
X19632D1*
X20092D2*
X20510D1*
X22216D2*
X22276D1*
X14018Y6356D2*
X14586D1*
X15843D2*
X16351D1*
X17159D2*
X17728D1*
X18536D2*
X18865D1*
X19583D2*
X19604D1*
X20092D2*
X20510D1*
X21977D2*
X22276D1*
X14018Y6327D2*
X14586D1*
X15843D2*
X16351D1*
X17159D2*
X17728D1*
X18536D2*
X18865D1*
X19583D2*
X19578D1*
X20092D2*
X20510D1*
X21977D2*
X22276D1*
X14018Y6297D2*
X14586D1*
X15843D2*
X16351D1*
X17159D2*
X17728D1*
X18536D2*
X19194D1*
X21859D2*
X22276D1*
X14018Y6267D2*
X14586D1*
X15842D2*
X16351D1*
X17159D2*
X17728D1*
X18536D2*
X19583D1*
X21768D2*
X22276D1*
X14017Y6237D2*
X14586D1*
X15838D2*
X16351D1*
X17159D2*
X17728D1*
X18536D2*
X19578D1*
X21731D2*
X22276D1*
X14016Y6207D2*
X14586D1*
X15831D2*
X16351D1*
X17159D2*
X17728D1*
X18536D2*
X19571D1*
X20092D2*
X20510D1*
X21718D2*
X22276D1*
X14013Y6177D2*
X14586D1*
X15823D2*
X16351D1*
X17159D2*
X17728D1*
X18536D2*
X19563D1*
X20092D2*
X20510D1*
X21712D2*
X22276D1*
X14005Y6147D2*
X14586D1*
X15818D2*
X16351D1*
X17159D2*
X17728D1*
X18536D2*
X19557D1*
X20092D2*
X20510D1*
X21709D2*
X22276D1*
X13998Y6117D2*
X14586D1*
X15815D2*
X16351D1*
X17159D2*
X17728D1*
X18536D2*
X19493D1*
X20092D2*
X20510D1*
X21708D2*
X22276D1*
X13992Y6087D2*
X14586D1*
X15814D2*
X16351D1*
X17159D2*
X17728D1*
X18536D2*
X19488D1*
X20092D2*
X20510D1*
X21707D2*
X22276D1*
X12940Y6057D2*
X14586D1*
X14795D2*
X16351D1*
X17159D2*
X17728D1*
X18536D2*
X19479D1*
X20092D2*
X20510D1*
X20720D2*
X22276D1*
X12940Y6027D2*
X14586D1*
X14795D2*
X16351D1*
X17159D2*
X17728D1*
X18536D2*
X19462D1*
X20092D2*
X20510D1*
X20720D2*
X22276D1*
X12940Y5997D2*
X14586D1*
X14795D2*
X16351D1*
X17159D2*
X17728D1*
X18536D2*
X19439D1*
X20092D2*
X20510D1*
X20720D2*
X22276D1*
X12940Y5968D2*
X14586D1*
X14795D2*
X16351D1*
X17159D2*
X17728D1*
X18536D2*
X19414D1*
X20092D2*
X20510D1*
X20720D2*
X22276D1*
X12940Y5938D2*
X14586D1*
X14795D2*
X16351D1*
X17159D2*
X17728D1*
X18536D2*
X19394D1*
X20092D2*
X20510D1*
X20720D2*
X22276D1*
X12940Y5908D2*
X14586D1*
X14795D2*
X16351D1*
X17159D2*
X17728D1*
X18536D2*
X19383D1*
X20092D2*
X20510D1*
X20720D2*
X22276D1*
X12940Y5878D2*
X14586D1*
X14795D2*
X16351D1*
X17159D2*
X17728D1*
X18536D2*
X19377D1*
X20092D2*
X20510D1*
X20720D2*
X22276D1*
X12940Y5848D2*
X14585D1*
X14795D2*
X16351D1*
X17159D2*
X17728D1*
X18537D2*
X19314D1*
X20092D2*
X20510D1*
X20720D2*
X22276D1*
X12940Y5818D2*
X14581D1*
X14795D2*
X16351D1*
X17159D2*
X17728D1*
X18541D2*
X19294D1*
X20092D2*
X20510D1*
X20720D2*
X22276D1*
X12940Y5788D2*
X14571D1*
X14795D2*
X16350D1*
X17159D2*
X17728D1*
X18550D2*
X19269D1*
X20092D2*
X20510D1*
X20720D2*
X22274D1*
X12940Y5758D2*
X14554D1*
X14795D2*
X16346D1*
X17159D2*
X17728D1*
X18567D2*
X19242D1*
X20092D2*
X20510D1*
X20720D2*
X22271D1*
X12940Y5728D2*
X14527D1*
X14795D2*
X16325D1*
X17159D2*
X17728D1*
X18590D2*
X19214D1*
X20092D2*
X20510D1*
X20720D2*
X22249D1*
X12940Y5698D2*
X14494D1*
X14795D2*
X16294D1*
X17159D2*
X17728D1*
X18616D2*
X19184D1*
X20092D2*
X20510D1*
X20720D2*
X22219D1*
X12940Y5668D2*
X14463D1*
X14795D2*
X16262D1*
X17159D2*
X17728D1*
X18637D2*
X19157D1*
X20092D2*
X20510D1*
X20720D2*
X22186D1*
X12940Y5638D2*
X14436D1*
X14795D2*
X16232D1*
X17159D2*
X17728D1*
X18655D2*
X19134D1*
X20092D2*
X20510D1*
X20720D2*
X22156D1*
X20002Y7583D2*
Y7553D1*
X19900Y7523D1*
X19822Y7494D1*
X19769Y7464D1*
X19729Y7434D1*
X19709Y7404D1*
X19686Y7374D1*
X19661Y7344D1*
X19638Y7314D1*
X19620Y7284D1*
X19603Y7254D1*
X19584Y7224D1*
X19559Y7194D1*
X19533Y7164D1*
X19514Y7134D1*
X19500Y7105D1*
X19486Y7075D1*
X19465Y7045D1*
X19442Y7015D1*
X19423Y6985D1*
X19412Y6955D1*
X19407Y6925D1*
X19403Y6895D1*
X19344D1*
X19333Y6865D1*
X19322Y6835D1*
X19308Y6805D1*
X19286Y6775D1*
X19260Y6745D1*
X19234Y6716D1*
X19209Y6686D1*
X19187Y6656D1*
X19168Y6626D1*
X19147Y6596D1*
X19122Y6566D1*
X19099Y6536D1*
X19081Y6506D1*
X19067Y6476D1*
X19055Y6446D1*
X19044Y6416D1*
X19164Y6386D1*
X20181Y7583D2*
Y7553D1*
X20282Y7523D1*
X20356Y7494D1*
X20409Y7464D1*
X20433Y7434D1*
X20442Y7404D1*
X20447Y7374D1*
X20449Y7344D1*
X20451Y7314D1*
X20510D1*
Y7284D1*
Y7254D1*
Y7224D1*
Y7194D1*
Y7164D1*
Y7134D1*
Y7105D1*
Y7075D1*
Y7045D1*
Y7015D1*
Y6985D1*
Y6955D1*
Y6925D1*
Y6895D1*
Y6865D1*
Y6835D1*
Y6805D1*
Y6775D1*
Y6745D1*
Y6716D1*
Y6686D1*
Y6656D1*
Y6626D1*
Y6596D1*
Y6566D1*
Y6536D1*
Y6506D1*
Y6476D1*
Y6446D1*
Y6416D1*
Y6386D1*
Y6356D1*
Y6327D1*
X14018Y7523D2*
Y7494D1*
Y7464D1*
Y7434D1*
Y7404D1*
Y7374D1*
Y7344D1*
Y7314D1*
Y7284D1*
Y7254D1*
Y7224D1*
Y7194D1*
Y7164D1*
Y7134D1*
Y7105D1*
Y7075D1*
Y7045D1*
Y7015D1*
Y6985D1*
Y6955D1*
Y6925D1*
X14586Y7523D2*
Y7494D1*
Y7464D1*
Y7434D1*
Y7404D1*
Y7374D1*
Y7344D1*
Y7314D1*
Y7284D1*
Y7254D1*
Y7224D1*
Y7194D1*
Y7164D1*
Y7134D1*
Y7105D1*
X14585Y7075D1*
X14581Y7045D1*
X14574Y7015D1*
X14565Y6985D1*
X14556Y6955D1*
X14795Y7523D2*
Y7494D1*
Y7464D1*
Y7434D1*
Y7404D1*
Y7374D1*
Y7344D1*
Y7314D1*
Y7284D1*
Y7254D1*
Y7224D1*
Y7194D1*
Y7164D1*
Y7134D1*
Y7105D1*
X16262Y7523D2*
X16294Y7494D1*
X16318Y7464D1*
X16335Y7434D1*
X16344Y7404D1*
X16348Y7374D1*
X16350Y7344D1*
X16351Y7314D1*
Y7284D1*
Y7254D1*
Y7224D1*
Y7194D1*
Y7164D1*
Y7134D1*
Y7105D1*
Y7075D1*
Y7045D1*
Y7015D1*
X16531Y7523D2*
Y7494D1*
Y7464D1*
Y7434D1*
Y7404D1*
Y7374D1*
Y7344D1*
Y7314D1*
Y7284D1*
Y7254D1*
Y7224D1*
Y7194D1*
Y7164D1*
Y7134D1*
Y7105D1*
X18356Y7523D2*
Y7494D1*
Y7464D1*
Y7434D1*
Y7404D1*
Y7374D1*
Y7344D1*
Y7314D1*
Y7284D1*
Y7254D1*
Y7224D1*
Y7194D1*
Y7164D1*
Y7134D1*
Y7105D1*
X18536Y7523D2*
Y7494D1*
Y7464D1*
Y7434D1*
Y7404D1*
Y7374D1*
Y7344D1*
Y7314D1*
Y7284D1*
Y7254D1*
Y7224D1*
Y7194D1*
Y7164D1*
Y7134D1*
Y7105D1*
Y7075D1*
Y7045D1*
Y7015D1*
Y6985D1*
Y6955D1*
Y6925D1*
Y6895D1*
Y6865D1*
Y6835D1*
Y6805D1*
Y6775D1*
Y6745D1*
Y6716D1*
Y6686D1*
Y6656D1*
Y6626D1*
Y6596D1*
X18539Y6566D1*
X18543Y6536D1*
X18625Y6506D1*
X18748Y6476D1*
X18895Y6446D1*
Y6416D1*
X18955Y7523D2*
Y7494D1*
Y7464D1*
Y7434D1*
Y7404D1*
Y7374D1*
Y7344D1*
Y7314D1*
Y7284D1*
Y7254D1*
Y7224D1*
Y7194D1*
Y7164D1*
Y7134D1*
Y7105D1*
Y7075D1*
Y7045D1*
Y7015D1*
Y6985D1*
Y6955D1*
Y6925D1*
Y6895D1*
Y6865D1*
Y6835D1*
Y6805D1*
Y6775D1*
Y6745D1*
Y6716D1*
Y6686D1*
Y6656D1*
Y6626D1*
Y6596D1*
Y6566D1*
Y6536D1*
Y6506D1*
Y6476D1*
Y6446D1*
Y6416D1*
X20720Y7523D2*
Y7494D1*
Y7464D1*
Y7434D1*
Y7404D1*
Y7374D1*
Y7344D1*
Y7314D1*
Y7284D1*
Y7254D1*
Y7224D1*
Y7194D1*
Y7164D1*
Y7134D1*
Y7105D1*
X22156Y7523D2*
X22202Y7494D1*
X22235Y7464D1*
X22260Y7434D1*
X22268Y7404D1*
X22273Y7374D1*
X22275Y7344D1*
Y7314D1*
X22276Y7284D1*
Y7254D1*
Y7224D1*
Y7194D1*
Y7164D1*
Y7134D1*
Y7105D1*
Y7075D1*
Y7045D1*
Y7015D1*
Y6985D1*
Y6955D1*
Y6925D1*
Y6895D1*
Y6865D1*
Y6835D1*
Y6805D1*
Y6775D1*
Y6745D1*
Y6716D1*
Y6686D1*
Y6656D1*
Y6626D1*
Y6596D1*
X22274Y6566D1*
X22268Y6536D1*
X22232Y6506D1*
X22130Y6476D1*
X22006Y6446D1*
Y6416D1*
X15813Y7105D2*
Y7075D1*
Y7045D1*
Y7015D1*
X17159Y7105D2*
Y7075D1*
Y7045D1*
Y7015D1*
Y6985D1*
Y6955D1*
Y6925D1*
Y6895D1*
Y6865D1*
X17323Y6835D1*
X17488Y6805D1*
Y6775D1*
X17668Y6745D1*
X17728Y7105D2*
Y7075D1*
Y7045D1*
Y7015D1*
Y6985D1*
Y6955D1*
Y6925D1*
Y6895D1*
Y6865D1*
Y6835D1*
Y6805D1*
Y6775D1*
Y6745D1*
X21707Y7105D2*
Y7075D1*
Y7045D1*
Y7015D1*
Y6985D1*
Y6955D1*
Y6925D1*
Y6895D1*
Y6865D1*
Y6835D1*
X14167Y6955D2*
X14137Y6925D1*
X14526Y6895D2*
Y6865D1*
Y6835D1*
X14586Y6895D2*
Y6865D1*
Y6835D1*
Y6805D1*
Y6775D1*
Y6745D1*
Y6716D1*
Y6686D1*
Y6656D1*
Y6626D1*
Y6596D1*
Y6566D1*
Y6536D1*
Y6506D1*
Y6476D1*
Y6446D1*
Y6416D1*
Y6386D1*
Y6356D1*
Y6327D1*
Y6297D1*
Y6267D1*
Y6237D1*
Y6207D1*
Y6177D1*
Y6147D1*
Y6117D1*
Y6087D1*
Y6057D1*
Y6027D1*
Y5997D1*
Y5968D1*
Y5938D1*
Y5908D1*
Y5878D1*
X14585Y5848D1*
X14581Y5818D1*
X14571Y5788D1*
X14554Y5758D1*
X14527Y5728D1*
X14494Y5698D1*
X14463Y5668D1*
X14436Y5638D1*
X15843Y6895D2*
Y6865D1*
Y6835D1*
Y6805D1*
Y6775D1*
Y6745D1*
X16351Y6895D2*
Y6865D1*
Y6835D1*
Y6805D1*
Y6775D1*
Y6745D1*
Y6716D1*
Y6686D1*
Y6656D1*
Y6626D1*
Y6596D1*
Y6566D1*
Y6536D1*
Y6506D1*
Y6476D1*
Y6446D1*
Y6416D1*
Y6386D1*
Y6356D1*
Y6327D1*
Y6297D1*
Y6267D1*
Y6237D1*
Y6207D1*
Y6177D1*
Y6147D1*
Y6117D1*
Y6087D1*
Y6057D1*
Y6027D1*
Y5997D1*
Y5968D1*
Y5938D1*
Y5908D1*
Y5878D1*
Y5848D1*
Y5818D1*
X16350Y5788D1*
X16346Y5758D1*
X16325Y5728D1*
X16294Y5698D1*
X16262Y5668D1*
X16232Y5638D1*
X14107Y6835D2*
X14066Y6805D1*
X14035Y6775D1*
X14026Y6745D1*
X14021Y6716D1*
X14019Y6686D1*
X14018Y6656D1*
Y6626D1*
Y6596D1*
Y6566D1*
Y6536D1*
Y6506D1*
Y6476D1*
Y6446D1*
Y6416D1*
Y6386D1*
Y6356D1*
Y6327D1*
Y6297D1*
Y6267D1*
X14017Y6237D1*
X14016Y6207D1*
X14013Y6177D1*
X14005Y6147D1*
X13998Y6117D1*
X13992Y6087D1*
X13988Y6057D1*
X20032Y6865D2*
X19983Y6835D1*
X19947Y6805D1*
X19923Y6775D1*
X19904Y6745D1*
X19885Y6716D1*
X19863Y6686D1*
X19842Y6656D1*
X19822Y6626D1*
X19798Y6596D1*
X19772Y6566D1*
X19751Y6536D1*
X19732Y6506D1*
X19711Y6476D1*
X19687Y6446D1*
X19661Y6416D1*
X19632Y6386D1*
X19604Y6356D1*
X19578Y6327D1*
X19553Y6297D1*
X19972Y6865D2*
X20020Y6835D1*
X20060Y6805D1*
X20076Y6775D1*
X20085Y6745D1*
X20089Y6716D1*
X20091Y6686D1*
Y6656D1*
Y6626D1*
Y6596D1*
X20092Y6566D1*
Y6536D1*
Y6506D1*
Y6476D1*
Y6446D1*
Y6416D1*
Y6386D1*
Y6356D1*
Y6327D1*
X20720Y6835D2*
Y6805D1*
Y6775D1*
Y6745D1*
Y6716D1*
Y6686D1*
Y6656D1*
Y6626D1*
Y6596D1*
Y6566D1*
Y6536D1*
Y6506D1*
Y6476D1*
X14855Y6745D2*
Y6716D1*
Y6686D1*
Y6656D1*
Y6626D1*
Y6596D1*
Y6566D1*
Y6536D1*
Y6506D1*
Y6476D1*
Y6446D1*
Y6416D1*
Y6386D1*
X17159Y6745D2*
Y6716D1*
Y6686D1*
Y6656D1*
Y6626D1*
Y6596D1*
Y6566D1*
Y6536D1*
Y6506D1*
Y6476D1*
Y6446D1*
Y6416D1*
Y6386D1*
Y6356D1*
Y6327D1*
Y6297D1*
Y6267D1*
Y6237D1*
Y6207D1*
Y6177D1*
Y6147D1*
Y6117D1*
Y6087D1*
Y6057D1*
Y6027D1*
Y5997D1*
Y5968D1*
Y5938D1*
Y5908D1*
Y5878D1*
Y5848D1*
Y5818D1*
Y5788D1*
Y5758D1*
Y5728D1*
Y5698D1*
Y5668D1*
Y5638D1*
X17279Y6745D2*
X17458Y6716D1*
Y6686D1*
X17572Y6656D1*
X17663Y6626D1*
X17702Y6596D1*
X17716Y6566D1*
X17723Y6536D1*
X17726Y6506D1*
X17727Y6476D1*
X17728Y6446D1*
Y6416D1*
Y6386D1*
Y6356D1*
Y6327D1*
Y6297D1*
Y6267D1*
Y6237D1*
Y6207D1*
Y6177D1*
Y6147D1*
Y6117D1*
Y6087D1*
Y6057D1*
Y6027D1*
Y5997D1*
Y5968D1*
Y5938D1*
Y5908D1*
Y5878D1*
Y5848D1*
Y5818D1*
Y5788D1*
Y5758D1*
Y5728D1*
Y5698D1*
Y5668D1*
Y5638D1*
X21707Y6476D2*
Y6446D1*
Y6416D1*
X22036Y6386D1*
X18536D2*
Y6356D1*
Y6327D1*
Y6297D1*
Y6267D1*
Y6237D1*
Y6207D1*
Y6177D1*
Y6147D1*
Y6117D1*
Y6087D1*
Y6057D1*
Y6027D1*
Y5997D1*
Y5968D1*
Y5938D1*
Y5908D1*
Y5878D1*
X18537Y5848D1*
X18541Y5818D1*
X18550Y5788D1*
X18567Y5758D1*
X18590Y5728D1*
X18616Y5698D1*
X18637Y5668D1*
X18655Y5638D1*
X18625Y6386D2*
X18865Y6356D1*
Y6327D1*
X19194Y6297D1*
X19523Y6267D1*
X22216Y6386D2*
X21977Y6356D1*
Y6327D1*
X21859Y6297D1*
X21768Y6267D1*
X21731Y6237D1*
X21718Y6207D1*
X21712Y6177D1*
X21709Y6147D1*
X21708Y6117D1*
X21707Y6087D1*
Y6057D1*
X22276Y6386D2*
Y6356D1*
Y6327D1*
Y6297D1*
Y6267D1*
Y6237D1*
Y6207D1*
Y6177D1*
Y6147D1*
Y6117D1*
Y6087D1*
Y6057D1*
Y6027D1*
Y5997D1*
Y5968D1*
Y5938D1*
Y5908D1*
Y5878D1*
Y5848D1*
Y5818D1*
X22274Y5788D1*
X22271Y5758D1*
X22249Y5728D1*
X22219Y5698D1*
X22186Y5668D1*
X22156Y5638D1*
X15843Y6386D2*
Y6356D1*
Y6327D1*
Y6297D1*
X15842Y6267D1*
X15838Y6237D1*
X15831Y6207D1*
X15823Y6177D1*
X15818Y6147D1*
X15815Y6117D1*
X15814Y6087D1*
X15813Y6057D1*
X19583Y6267D2*
X19578Y6237D1*
X19571Y6207D1*
X19563Y6177D1*
X19557Y6147D1*
X19553Y6117D1*
X19493D1*
X19488Y6087D1*
X19479Y6057D1*
X19462Y6027D1*
X19439Y5997D1*
X19414Y5968D1*
X19394Y5938D1*
X19383Y5908D1*
X19377Y5878D1*
X19373Y5848D1*
X19314D1*
X19294Y5818D1*
X19269Y5788D1*
X19242Y5758D1*
X19214Y5728D1*
X19184Y5698D1*
X19157Y5668D1*
X19134Y5638D1*
X20092Y6207D2*
Y6177D1*
Y6147D1*
Y6117D1*
Y6087D1*
Y6057D1*
Y6027D1*
Y5997D1*
Y5968D1*
Y5938D1*
Y5908D1*
Y5878D1*
Y5848D1*
Y5818D1*
Y5788D1*
Y5758D1*
Y5728D1*
Y5698D1*
Y5668D1*
Y5638D1*
X20510Y6207D2*
Y6177D1*
Y6147D1*
Y6117D1*
Y6087D1*
Y6057D1*
Y6027D1*
Y5997D1*
Y5968D1*
Y5938D1*
Y5908D1*
Y5878D1*
Y5848D1*
Y5818D1*
Y5788D1*
Y5758D1*
Y5728D1*
Y5698D1*
Y5668D1*
Y5638D1*
X12940Y6057D2*
Y6027D1*
Y5997D1*
Y5968D1*
Y5938D1*
Y5908D1*
Y5878D1*
Y5848D1*
Y5818D1*
Y5788D1*
Y5758D1*
Y5728D1*
Y5698D1*
Y5668D1*
Y5638D1*
X14795Y6057D2*
Y6027D1*
Y5997D1*
Y5968D1*
Y5938D1*
Y5908D1*
Y5878D1*
Y5848D1*
Y5818D1*
Y5788D1*
Y5758D1*
Y5728D1*
Y5698D1*
Y5668D1*
Y5638D1*
X20720Y6057D2*
Y6027D1*
Y5997D1*
Y5968D1*
Y5938D1*
Y5908D1*
Y5878D1*
Y5848D1*
Y5818D1*
Y5788D1*
Y5758D1*
Y5728D1*
Y5698D1*
Y5668D1*
Y5638D1*
X12322Y20024D2*
D81*
X12297Y19976D1*
X12226Y19904D1*
X12728D1*
X12226Y19606D2*
X12250Y19678D1*
X12322Y19726D1*
X12441Y19750D1*
X12513D1*
X12632Y19726D1*
X12704Y19678D1*
X12728Y19606D1*
Y19559D1*
X12704Y19487D1*
X12632Y19439D1*
X12513Y19415D1*
X12441D1*
X12322Y19439D1*
X12250Y19487D1*
X12226Y19559D1*
Y19606D1*
X12322Y19439D2*
X12632Y19726D1*
X12225Y19261D2*
X12728D1*
X12393Y19021D2*
X12632Y19261D1*
X12537Y19165D2*
X12728Y18997D1*
X8947Y20399D2*
X8922Y20351D1*
X8851Y20279D1*
X9353D1*
X8851Y19981D2*
X8875Y20053D1*
X8947Y20101D1*
X9066Y20125D1*
X9138D1*
X9257Y20101D1*
X9329Y20053D1*
X9353Y19981D1*
Y19934D1*
X9329Y19862D1*
X9257Y19814D1*
X9138Y19790D1*
X9066D1*
X8947Y19814D1*
X8875Y19862D1*
X8851Y19934D1*
Y19981D1*
X8947Y19814D2*
X9257Y20101D1*
X8850Y19636D2*
X9353D1*
X9018Y19396D2*
X9257Y19636D1*
X9162Y19540D2*
X9353Y19372D1*
X5697Y20399D2*
X5672Y20351D1*
X5601Y20279D1*
X6103D1*
X5601Y19981D2*
X5625Y20053D1*
X5697Y20101D1*
X5816Y20125D1*
X5888D1*
X6007Y20101D1*
X6079Y20053D1*
X6103Y19981D1*
Y19934D1*
X6079Y19862D1*
X6007Y19814D1*
X5888Y19790D1*
X5816D1*
X5697Y19814D1*
X5625Y19862D1*
X5601Y19934D1*
Y19981D1*
X5697Y19814D2*
X6007Y20101D1*
X5600Y19636D2*
X6103D1*
X5768Y19396D2*
X6007Y19636D1*
X5912Y19540D2*
X6103Y19372D1*
X34585Y20904D2*
Y20927D1*
X34561Y20975D1*
X34537Y20999D1*
X34489Y21023D1*
X34394D1*
X34346Y20999D1*
X34322Y20975D1*
X34298Y20927D1*
Y20880D1*
X34322Y20832D1*
X34370Y20760D1*
X34609Y20521D1*
X34274D1*
X33976Y21023D2*
X34048Y20999D1*
X34096Y20927D1*
X34120Y20808D1*
Y20736D1*
X34096Y20617D1*
X34048Y20545D1*
X33976Y20521D1*
X33928D1*
X33857Y20545D1*
X33809Y20617D1*
X33785Y20736D1*
Y20808D1*
X33809Y20927D1*
X33857Y20999D1*
X33928Y21023D1*
X33976D1*
X33809Y20927D2*
X34096Y20617D1*
X33630Y21024D2*
Y20521D1*
X33391Y20856D2*
X33630Y20617D1*
X33535Y20712D2*
X33367Y20521D1*
X34608Y22778D2*
Y22802D1*
X34584Y22850D1*
X34560Y22874D1*
X34512Y22898D1*
X34416D1*
X34369Y22874D1*
X34345Y22850D1*
X34321Y22802D1*
Y22755D1*
X34345Y22707D1*
X34393Y22635D1*
X34632Y22396D1*
X34297D1*
X33999Y22898D2*
X34071Y22874D1*
X34119Y22802D1*
X34143Y22683D1*
Y22611D1*
X34119Y22492D1*
X34071Y22420D1*
X33999Y22396D1*
X33951D1*
X33879Y22420D1*
X33832Y22492D1*
X33808Y22611D1*
Y22683D1*
X33832Y22802D1*
X33879Y22874D1*
X33951Y22898D1*
X33999D1*
X33832Y22802D2*
X34119Y22492D1*
X33653Y22898D2*
Y22396D1*
X33414Y22731D2*
X33653Y22492D1*
X33558Y22587D2*
X33390Y22396D1*
X33736Y17990D2*
X33688Y18015D1*
X33616Y18086D1*
Y17584D1*
X33438Y17967D2*
Y17990D1*
X33414Y18038D1*
X33390Y18062D1*
X33342Y18086D1*
X33246D1*
X33199Y18062D1*
X33175Y18038D1*
X33151Y17990D1*
Y17943D1*
X33175Y17895D1*
X33223Y17823D1*
X33462Y17584D1*
X33127D1*
X32829Y18086D2*
X32901Y18062D1*
X32949Y17990D1*
X32973Y17871D1*
Y17799D1*
X32949Y17680D1*
X32901Y17608D1*
X32829Y17584D1*
X32781D1*
X32710Y17608D1*
X32662Y17680D1*
X32638Y17799D1*
Y17871D1*
X32662Y17990D1*
X32710Y18062D1*
X32781Y18086D1*
X32829D1*
X32662Y17990D2*
X32949Y17680D1*
X22072Y18752D2*
X22047Y18703D1*
X21976Y18632D1*
X22478D1*
X21976Y18334D2*
X22000Y18405D1*
X22072Y18453D1*
X22191Y18477D1*
X22263D1*
X22382Y18453D1*
X22454Y18405D1*
X22478Y18334D1*
Y18286D1*
X22454Y18214D1*
X22382Y18167D1*
X22263Y18142D1*
X22191D1*
X22072Y18167D1*
X22000Y18214D1*
X21976Y18286D1*
Y18334D1*
X22072Y18167D2*
X22382Y18453D1*
X21976Y17988D2*
X22478D1*
X22143Y17749D2*
X22382Y17988D1*
X22287Y17892D2*
X22478Y17725D1*
X19947Y18752D2*
X19922Y18703D1*
X19851Y18632D1*
X20353D1*
X19851Y18334D2*
X19875Y18405D1*
X19947Y18453D1*
X20066Y18477D1*
X20138D1*
X20257Y18453D1*
X20329Y18405D1*
X20353Y18334D1*
Y18286D1*
X20329Y18214D1*
X20257Y18167D1*
X20138Y18142D1*
X20066D1*
X19947Y18167D1*
X19875Y18214D1*
X19851Y18286D1*
Y18334D1*
X19947Y18167D2*
X20257Y18453D1*
X19850Y17988D2*
X20353D1*
X20018Y17749D2*
X20257Y17988D1*
X20162Y17892D2*
X20353Y17725D1*
X24197Y18774D2*
X24172Y18726D1*
X24101Y18654D1*
X24603D1*
X24101Y18356D2*
X24125Y18428D1*
X24197Y18476D1*
X24316Y18500D1*
X24388D1*
X24507Y18476D1*
X24579Y18428D1*
X24603Y18356D1*
Y18308D1*
X24579Y18237D1*
X24507Y18189D1*
X24388Y18165D1*
X24316D1*
X24197Y18189D1*
X24125Y18237D1*
X24101Y18308D1*
Y18356D1*
X24197Y18189D2*
X24507Y18476D1*
X24100Y18010D2*
X24603D1*
X24268Y17771D2*
X24507Y18010D1*
X24412Y17915D2*
X24603Y17747D1*
M02*
