M48
INCH
T01C0.0118
T02C0.0191
T03C0.028
T04C0.032
T05C0.0354
T06C0.0362
T07C0.0394
T08C0.0433
T09C0.0472
T10C0.0906
T11C0.1004
T12C0.1181
%
T01
X+007437Y+017937
X+009187Y+017937
X+011562Y+017937
X+012937Y+017937
X+014437Y+018437
X+019937Y+016937
X+020187Y+018937
X+022187Y+016437
X+026437Y+019937
T02
X+031437Y+019562
X+028562Y+011812
X+011687Y+007437
T03
X+025437Y+006437
X+026437Y+006437
T04
X+022437Y+009437
X+020537Y+009437
T05
X+010624Y+010062
X+009624Y+010062
X+012937Y+012437
X+013937Y+012437
X+014937Y+012437
X+015937Y+012437
X+016937Y+012437
X+017937Y+012437
X+018937Y+012437
X+019937Y+012437
X+020937Y+012437
X+021937Y+012437
X+022937Y+012437
X+023937Y+012437
X+024937Y+012437
X+025937Y+012437
X+025937Y+015437
X+024937Y+015437
X+023937Y+015437
X+022937Y+015437
X+021937Y+015437
X+020937Y+015437
X+019937Y+015437
X+018937Y+015437
X+017937Y+015437
X+016937Y+015437
X+015937Y+015437
X+014937Y+015437
X+013937Y+015437
X+012937Y+015437
X+027937Y+015937
X+027937Y+014937
X+027937Y+016937
X+027937Y+017937
X+030937Y+017937
X+030937Y+016937
X+030937Y+015937
X+030937Y+014937
T06
X+030437Y+010937
X+031224Y+010937
X+031224Y+009953
X+030437Y+009953
T07
X+007937Y+021937
X+008937Y+021937
X+009937Y+021937
X+010937Y+021937
X+011937Y+021937
X+012937Y+021937
X+012937Y+024937
X+011937Y+024937
X+010937Y+024937
X+009937Y+024937
X+008937Y+024937
X+007937Y+024937
T08
X+006437Y+012437
X+006437Y+013437
X+006437Y+014437
X+006437Y+015437
X+006437Y+016437
X+006437Y+017437
X+017187Y+020250
X+018171Y+020250
X+019156Y+020250
X+023062Y+020312
X+024046Y+020312
X+025031Y+020312
X+028812Y+020312
X+029796Y+020312
X+030780Y+020312
T09
X+034937Y+017937
X+034937Y+015969
T10
X+032291Y+008075
X+032291Y+012815
T11
X+016400Y+023006
X+019943Y+023006
X+022275Y+023068
X+025818Y+023068
X+028024Y+023068
X+031568Y+023068
T12
X+035187Y+005187
X+035187Y+025687
X+005187Y+025687
X+005187Y+005187
T00
M30
