G04 DipTrace 2.4.0.2*
%INВерхняямаркировка.gbr*%
%MOIN*%
%ADD10C,0.0098*%
%ADD28C,0.0236*%
%ADD81C,0.0077*%
%ADD82C,0.0154*%
%FSLAX44Y44*%
G04*
G70*
G90*
G75*
G01*
%LNTopSilk*%
%LPD*%
X18507Y17622D2*
D10*
Y18252D1*
X18433Y17622D2*
Y18252D1*
Y17622D2*
X18669D1*
X18433Y18252D2*
X18669D1*
X22752Y6445D2*
X22122D1*
X22752Y6370D2*
X22122D1*
X22752D2*
Y6606D1*
X22122Y6370D2*
Y6606D1*
X20752Y6445D2*
X20122D1*
X20752Y6370D2*
X20122D1*
X20752D2*
Y6606D1*
X20122Y6370D2*
Y6606D1*
X14179Y9752D2*
Y9122D1*
X14254Y9752D2*
Y9122D1*
Y9752D2*
X14018D1*
X14254Y9122D2*
X14018D1*
X11423Y10180D2*
Y9944D1*
X11541Y10062D2*
X11305D1*
X9124D2*
G02X9124Y10062I1000J0D01*
G01*
X21804Y18252D2*
Y17622D1*
X21879Y18252D2*
Y17622D1*
Y18252D2*
X21643D1*
X21879Y17622D2*
X21643D1*
X17242Y9752D2*
Y9122D1*
X17316Y9752D2*
Y9122D1*
Y9752D2*
X17081D1*
X17316Y9122D2*
X17081D1*
X28429Y9814D2*
Y9185D1*
X28504Y9814D2*
Y9185D1*
Y9814D2*
X28268D1*
X28504Y9185D2*
X28268D1*
X26937Y7186D2*
Y5688D1*
X26935Y7189D2*
G03X26935Y5685I-998J-752D01*
G01*
X5937Y11937D2*
X6937D1*
Y17937D1*
X5937D1*
Y11937D1*
X36347Y8043D2*
Y12847D1*
Y8043D2*
X33158D1*
X33118Y12847D2*
X36347D1*
X31425Y8043D2*
X30126D1*
Y9540D1*
Y11429D2*
Y12847D1*
X31465D1*
X14231Y7377D2*
X13996D1*
X14231Y6748D2*
X13996D1*
X16301Y20645D2*
Y22110D1*
X20042Y20645D2*
Y22090D1*
X16301Y20645D2*
X16616D1*
X16301Y25173D2*
X20042D1*
Y20645D2*
X19707D1*
X16301Y25173D2*
Y23972D1*
X20042Y25173D2*
Y23933D1*
X22176Y20707D2*
Y22172D1*
X25917Y20707D2*
Y22152D1*
X22176Y20707D2*
X22492D1*
X22176Y25235D2*
X25917D1*
Y20707D2*
X25582D1*
X22176Y25235D2*
Y24034D1*
X25917Y25235D2*
Y23995D1*
X27926Y20707D2*
Y22172D1*
X31666Y20707D2*
Y22152D1*
X27926Y20707D2*
X28241D1*
X27926Y25235D2*
X31666D1*
Y20707D2*
X31331D1*
X27926Y25235D2*
Y24034D1*
X31666Y25235D2*
Y23995D1*
X25819Y9174D2*
X26055D1*
X25819Y9803D2*
X26055D1*
X15502Y19370D2*
Y19606D1*
X14872Y19370D2*
Y19606D1*
X12002Y19370D2*
Y19606D1*
X11372Y19370D2*
Y19606D1*
X8502Y19370D2*
Y19606D1*
X7872Y19370D2*
Y19606D1*
D28*
X8354Y7153D3*
X9141Y7448D2*
D10*
X11110D1*
Y5676D1*
X9141D1*
Y7448D1*
G36*
X9626Y6812D2*
X9876D1*
Y6312D1*
X9626D1*
Y6812D1*
G37*
X7031Y21437D2*
D10*
X13843D1*
Y25437D1*
X7031D1*
Y21437D1*
Y22687D2*
X13843D1*
Y24187D1*
X7031D1*
Y22687D1*
G36*
X7687Y22937D2*
X8187D1*
Y23187D1*
X7687D1*
Y22937D1*
G37*
G36*
X8687D2*
X9187D1*
Y23187D1*
X8687D1*
Y22937D1*
G37*
G36*
X9687D2*
X10187D1*
Y23187D1*
X9687D1*
Y22937D1*
G37*
G36*
X10687D2*
X11187D1*
Y23187D1*
X10687D1*
Y22937D1*
G37*
G36*
X11687D2*
X12187D1*
Y23187D1*
X11687D1*
Y22937D1*
G37*
G36*
X12687D2*
X13187D1*
Y23187D1*
X12687D1*
Y22937D1*
G37*
X12350Y12913D2*
D10*
X26524D1*
X12350Y14961D2*
X26524D1*
Y12913D2*
Y14961D1*
X12350Y12913D2*
Y13701D1*
Y14961D2*
Y14173D1*
Y13701D2*
G03X12350Y14173I-1J236D01*
G01*
X30461Y18406D2*
Y14469D1*
X28413D2*
X30461D1*
X28413Y18406D2*
Y14469D1*
Y18406D2*
X29201D1*
X30461D2*
X29673D1*
X29201D2*
G03X29673Y18406I236J0D01*
G01*
X36512Y18921D2*
X32969D1*
Y14984D1*
X36512D1*
Y18921D1*
X36039D2*
Y15024D1*
X36472Y16953D2*
X33008D1*
X34229Y17936D2*
X34230Y17985D1*
X34235Y18035D1*
X34244Y18083D1*
X34256Y18131D1*
X34271Y18179D1*
X34290Y18225D1*
X34311Y18269D1*
X34336Y18312D1*
X34364Y18353D1*
X34394Y18392D1*
X34427Y18429D1*
X34463Y18463D1*
X34501Y18495D1*
X34541Y18524D1*
X34583Y18551D1*
X34627Y18574D1*
X34672Y18594D1*
X34718Y18611D1*
X34766Y18625D1*
X34814Y18635D1*
X34863Y18642D1*
X34912Y18645D1*
X34962D1*
X35011Y18642D1*
X35060Y18635D1*
X35109Y18625D1*
X35156Y18611D1*
X35203Y18594D1*
X35248Y18574D1*
X35291Y18551D1*
X35333Y18524D1*
X35373Y18495D1*
X35411Y18463D1*
X35447Y18429D1*
X35480Y18392D1*
X35510Y18353D1*
X35538Y18312D1*
X35563Y18269D1*
X35585Y18225D1*
X35603Y18179D1*
X35618Y18131D1*
X35630Y18083D1*
X35639Y18035D1*
X35644Y17985D1*
X35646Y17936D1*
X35644Y17886D1*
X35639Y17837D1*
X35630Y17788D1*
X35618Y17740D1*
X35603Y17693D1*
X35585Y17647D1*
X35563Y17603D1*
X35538Y17560D1*
X35510Y17519D1*
X35480Y17480D1*
X35447Y17443D1*
X35411Y17408D1*
X35373Y17376D1*
X35333Y17347D1*
X35291Y17321D1*
X35248Y17298D1*
X35203Y17278D1*
X35156Y17261D1*
X35109Y17247D1*
X35060Y17237D1*
X35011Y17230D1*
X34962Y17226D1*
X34912D1*
X34863Y17230D1*
X34814Y17237D1*
X34766Y17247D1*
X34718Y17261D1*
X34672Y17278D1*
X34627Y17298D1*
X34583Y17321D1*
X34541Y17347D1*
X34501Y17376D1*
X34463Y17408D1*
X34427Y17443D1*
X34394Y17480D1*
X34364Y17519D1*
X34336Y17560D1*
X34311Y17603D1*
X34290Y17647D1*
X34271Y17693D1*
X34256Y17740D1*
X34244Y17788D1*
X34235Y17837D1*
X34230Y17886D1*
X34229Y17936D1*
Y15967D2*
X34230Y16017D1*
X34235Y16066D1*
X34244Y16115D1*
X34256Y16163D1*
X34271Y16210D1*
X34290Y16256D1*
X34311Y16301D1*
X34336Y16343D1*
X34364Y16385D1*
X34394Y16424D1*
X34427Y16460D1*
X34463Y16495D1*
X34501Y16527D1*
X34541Y16556D1*
X34583Y16582D1*
X34627Y16605D1*
X34672Y16625D1*
X34718Y16642D1*
X34766Y16656D1*
X34814Y16666D1*
X34863Y16673D1*
X34912Y16677D1*
X34962D1*
X35011Y16673D1*
X35060Y16666D1*
X35109Y16656D1*
X35156Y16642D1*
X35203Y16625D1*
X35248Y16605D1*
X35291Y16582D1*
X35333Y16556D1*
X35373Y16527D1*
X35411Y16495D1*
X35447Y16460D1*
X35480Y16424D1*
X35510Y16385D1*
X35538Y16343D1*
X35563Y16301D1*
X35585Y16256D1*
X35603Y16210D1*
X35618Y16163D1*
X35630Y16115D1*
X35639Y16066D1*
X35644Y16017D1*
X35646Y15967D1*
X35644Y15918D1*
X35639Y15869D1*
X35630Y15820D1*
X35618Y15772D1*
X35603Y15725D1*
X35585Y15679D1*
X35563Y15634D1*
X35538Y15591D1*
X35510Y15550D1*
X35480Y15511D1*
X35447Y15474D1*
X35411Y15440D1*
X35373Y15408D1*
X35333Y15379D1*
X35291Y15353D1*
X35248Y15329D1*
X35203Y15309D1*
X35156Y15292D1*
X35109Y15279D1*
X35060Y15268D1*
X35011Y15261D1*
X34962Y15258D1*
X34912D1*
X34863Y15261D1*
X34814Y15268D1*
X34766Y15279D1*
X34718Y15292D1*
X34672Y15309D1*
X34627Y15329D1*
X34583Y15353D1*
X34541Y15379D1*
X34501Y15408D1*
X34463Y15440D1*
X34427Y15474D1*
X34394Y15511D1*
X34364Y15550D1*
X34336Y15591D1*
X34311Y15634D1*
X34290Y15679D1*
X34271Y15725D1*
X34256Y15772D1*
X34244Y15820D1*
X34235Y15869D1*
X34230Y15918D1*
X34229Y15967D1*
X22687Y10287D2*
X20287D1*
X22687Y8587D2*
X20287D1*
X22687Y10087D2*
X20287D1*
Y8787D2*
X22687D1*
X21587Y9137D2*
X21387D1*
Y9737D1*
X21587D1*
Y9137D1*
X21237D2*
Y9437D1*
Y9737D1*
X21737Y9137D2*
Y9437D1*
Y9737D1*
X21237Y9437D2*
X20987D1*
X21737D2*
X21987D1*
X22687Y8587D2*
G03X22687Y10287I0J850D01*
G01*
X20287D2*
G03X20287Y8587I0J-850D01*
G01*
X22687Y8787D2*
G03X22687Y10087I0J650D01*
G01*
X20287D2*
G03X20287Y8787I0J-650D01*
G01*
X16953Y17233D2*
D81*
X16977Y17161D1*
X17049Y17113D1*
X17168Y17090D1*
X17240D1*
X17359Y17113D1*
X17431Y17161D1*
X17455Y17233D1*
Y17281D1*
X17431Y17353D1*
X17359Y17400D1*
X17240Y17425D1*
X17168D1*
X17049Y17400D1*
X16977Y17353D1*
X16953Y17281D1*
Y17233D1*
X17049Y17400D2*
X17359Y17113D1*
X17407Y17603D2*
X17431Y17579D1*
X17455Y17603D1*
X17431Y17627D1*
X17407Y17603D1*
X17049Y17781D2*
X17024Y17830D1*
X16953Y17901D1*
X17455D1*
X17120Y18056D2*
X17359D1*
X17430Y18080D1*
X17455Y18128D1*
Y18199D1*
X17430Y18247D1*
X17359Y18319D1*
X17120D2*
X17455D1*
X16952Y18784D2*
Y18473D1*
X17455D1*
X17192D2*
Y18664D1*
X21470Y5647D2*
X21447D1*
X21399Y5670D1*
X21375Y5694D1*
X21351Y5742D1*
Y5838D1*
X21375Y5885D1*
X21399Y5909D1*
X21447Y5934D1*
X21494D1*
X21542Y5909D1*
X21614Y5862D1*
X21853Y5622D1*
Y5957D1*
X21470Y6136D2*
X21447D1*
X21399Y6160D1*
X21375Y6184D1*
X21351Y6232D1*
Y6327D1*
X21375Y6375D1*
X21399Y6399D1*
X21447Y6423D1*
X21494D1*
X21542Y6399D1*
X21614Y6351D1*
X21853Y6112D1*
Y6447D1*
X21518Y6601D2*
X22020D1*
X21590D2*
X21542Y6649D1*
X21518Y6697D1*
Y6769D1*
X21542Y6817D1*
X21590Y6864D1*
X21662Y6888D1*
X21710D1*
X21781Y6864D1*
X21829Y6817D1*
X21853Y6769D1*
Y6697D1*
X21829Y6649D1*
X21781Y6601D1*
X21350Y7354D2*
Y7043D1*
X21853D1*
X21590D2*
Y7234D1*
X19470Y5647D2*
X19447D1*
X19399Y5670D1*
X19375Y5694D1*
X19351Y5742D1*
Y5838D1*
X19375Y5885D1*
X19399Y5909D1*
X19447Y5934D1*
X19494D1*
X19542Y5909D1*
X19614Y5862D1*
X19853Y5622D1*
Y5957D1*
X19470Y6136D2*
X19447D1*
X19399Y6160D1*
X19375Y6184D1*
X19351Y6232D1*
Y6327D1*
X19375Y6375D1*
X19399Y6399D1*
X19447Y6423D1*
X19494D1*
X19542Y6399D1*
X19614Y6351D1*
X19853Y6112D1*
Y6447D1*
X19518Y6601D2*
X20020D1*
X19590D2*
X19542Y6649D1*
X19518Y6697D1*
Y6769D1*
X19542Y6817D1*
X19590Y6864D1*
X19662Y6888D1*
X19710D1*
X19781Y6864D1*
X19829Y6817D1*
X19853Y6769D1*
Y6697D1*
X19829Y6649D1*
X19781Y6601D1*
X19350Y7354D2*
Y7043D1*
X19853D1*
X19590D2*
Y7234D1*
X13432Y10523D2*
X13360Y10499D1*
X13312Y10427D1*
X13288Y10308D1*
Y10236D1*
X13312Y10117D1*
X13360Y10045D1*
X13432Y10021D1*
X13480D1*
X13552Y10045D1*
X13599Y10117D1*
X13623Y10236D1*
Y10308D1*
X13599Y10427D1*
X13552Y10499D1*
X13480Y10523D1*
X13432D1*
X13599Y10427D2*
X13312Y10117D1*
X13802Y10069D2*
X13778Y10045D1*
X13802Y10021D1*
X13826Y10045D1*
X13802Y10069D1*
X13980Y10427D2*
X14028Y10452D1*
X14100Y10523D1*
Y10021D1*
X14255Y10356D2*
Y10117D1*
X14278Y10045D1*
X14326Y10021D1*
X14398D1*
X14446Y10045D1*
X14518Y10117D1*
Y10356D2*
Y10021D1*
X14983Y10524D2*
X14672D1*
Y10021D1*
Y10284D2*
X14863D1*
X9837Y11698D2*
X9885Y11723D1*
X9957Y11794D1*
Y11292D1*
X10255Y11794D2*
X10183Y11770D1*
X10135Y11698D1*
X10111Y11579D1*
Y11507D1*
X10135Y11388D1*
X10183Y11316D1*
X10255Y11292D1*
X10302D1*
X10374Y11316D1*
X10422Y11388D1*
X10446Y11507D1*
Y11579D1*
X10422Y11698D1*
X10374Y11770D1*
X10302Y11794D1*
X10255D1*
X10422Y11698D2*
X10135Y11388D1*
X10600Y11627D2*
Y11388D1*
X10624Y11316D1*
X10672Y11292D1*
X10744D1*
X10792Y11316D1*
X10864Y11388D1*
Y11627D2*
Y11292D1*
X11329Y11794D2*
X11018D1*
Y11292D1*
Y11555D2*
X11209D1*
X21057Y19023D2*
X20985Y18999D1*
X20937Y18927D1*
X20914Y18808D1*
Y18736D1*
X20937Y18617D1*
X20985Y18545D1*
X21057Y18521D1*
X21105D1*
X21177Y18545D1*
X21224Y18617D1*
X21249Y18736D1*
Y18808D1*
X21224Y18927D1*
X21177Y18999D1*
X21105Y19023D1*
X21057D1*
X21224Y18927D2*
X20937Y18617D1*
X21427Y18569D2*
X21403Y18545D1*
X21427Y18521D1*
X21451Y18545D1*
X21427Y18569D1*
X21605Y18927D2*
X21654Y18952D1*
X21725Y19023D1*
Y18521D1*
X21880Y18856D2*
Y18617D1*
X21904Y18545D1*
X21952Y18521D1*
X22023D1*
X22071Y18545D1*
X22143Y18617D1*
Y18856D2*
Y18521D1*
X22608Y19024D2*
X22297D1*
Y18521D1*
Y18784D2*
X22488D1*
X16495Y10523D2*
X16423Y10499D1*
X16375Y10427D1*
X16351Y10308D1*
Y10236D1*
X16375Y10117D1*
X16423Y10045D1*
X16495Y10021D1*
X16542D1*
X16614Y10045D1*
X16662Y10117D1*
X16686Y10236D1*
Y10308D1*
X16662Y10427D1*
X16614Y10499D1*
X16542Y10523D1*
X16495D1*
X16662Y10427D2*
X16375Y10117D1*
X16864Y10069D2*
X16840Y10045D1*
X16864Y10021D1*
X16888Y10045D1*
X16864Y10069D1*
X17043Y10427D2*
X17091Y10452D1*
X17163Y10523D1*
Y10021D1*
X17317Y10356D2*
Y10117D1*
X17341Y10045D1*
X17389Y10021D1*
X17461D1*
X17508Y10045D1*
X17580Y10117D1*
Y10356D2*
Y10021D1*
X18046Y10524D2*
X17735D1*
Y10021D1*
Y10284D2*
X17926D1*
X27682Y10586D2*
X27610Y10562D1*
X27562Y10490D1*
X27538Y10371D1*
Y10299D1*
X27562Y10179D1*
X27610Y10108D1*
X27682Y10084D1*
X27730D1*
X27802Y10108D1*
X27849Y10179D1*
X27873Y10299D1*
Y10371D1*
X27849Y10490D1*
X27802Y10562D1*
X27730Y10586D1*
X27682D1*
X27849Y10490D2*
X27562Y10179D1*
X28052Y10132D2*
X28028Y10108D1*
X28052Y10084D1*
X28076Y10108D1*
X28052Y10132D1*
X28230Y10490D2*
X28278Y10514D1*
X28350Y10586D1*
Y10084D1*
X28505Y10419D2*
Y10179D1*
X28528Y10108D1*
X28576Y10084D1*
X28648D1*
X28696Y10108D1*
X28768Y10179D1*
Y10419D2*
Y10084D1*
X29233Y10586D2*
X28922D1*
Y10084D1*
Y10347D2*
X29113D1*
X24582Y4755D2*
X24798D1*
X24869Y4778D1*
X24894Y4803D1*
X24917Y4850D1*
Y4922D1*
X24894Y4970D1*
X24869Y4994D1*
X24798Y5018D1*
X24582D1*
Y4515D1*
X25215Y5018D2*
X25167Y4994D1*
X25120Y4946D1*
X25095Y4898D1*
X25072Y4826D1*
Y4706D1*
X25095Y4635D1*
X25120Y4587D1*
X25167Y4540D1*
X25215Y4515D1*
X25311D1*
X25359Y4540D1*
X25407Y4587D1*
X25430Y4635D1*
X25454Y4706D1*
Y4826D1*
X25430Y4898D1*
X25407Y4946D1*
X25359Y4994D1*
X25311Y5018D1*
X25215D1*
X25609D2*
X25728Y4515D1*
X25848Y5018D1*
X25967Y4515D1*
X26087Y5018D1*
X26552D2*
X26242D1*
Y4515D1*
X26552D1*
X26242Y4778D2*
X26433D1*
X26707D2*
X26922D1*
X26993Y4803D1*
X27018Y4826D1*
X27042Y4874D1*
Y4922D1*
X27018Y4970D1*
X26993Y4994D1*
X26922Y5018D1*
X26707D1*
Y4515D1*
X26874Y4778D2*
X27042Y4515D1*
X32148Y7256D2*
Y6897D1*
X32172Y6825D1*
X32220Y6778D1*
X32292Y6753D1*
X32340D1*
X32411Y6778D1*
X32460Y6825D1*
X32483Y6897D1*
Y7256D1*
X32973Y7184D2*
X32925Y7232D1*
X32853Y7256D1*
X32758D1*
X32686Y7232D1*
X32638Y7184D1*
Y7136D1*
X32662Y7088D1*
X32686Y7064D1*
X32733Y7041D1*
X32877Y6993D1*
X32925Y6969D1*
X32949Y6944D1*
X32973Y6897D1*
Y6825D1*
X32925Y6778D1*
X32853Y6753D1*
X32758D1*
X32686Y6778D1*
X32638Y6825D1*
X33127Y7256D2*
Y6753D1*
X33343D1*
X33414Y6778D1*
X33438Y6801D1*
X33462Y6849D1*
Y6921D1*
X33438Y6969D1*
X33414Y6993D1*
X33343Y7016D1*
X33414Y7041D1*
X33438Y7064D1*
X33462Y7112D1*
Y7160D1*
X33438Y7208D1*
X33414Y7232D1*
X33343Y7256D1*
X33127D1*
Y7016D2*
X33343D1*
X33616Y7004D2*
X33893D1*
X34047Y7256D2*
Y6753D1*
X34263D1*
X34335Y6778D1*
X34358Y6801D1*
X34382Y6849D1*
Y6921D1*
X34358Y6969D1*
X34335Y6993D1*
X34263Y7016D1*
X34335Y7041D1*
X34358Y7064D1*
X34382Y7112D1*
Y7160D1*
X34358Y7208D1*
X34335Y7232D1*
X34263Y7256D1*
X34047D1*
Y7016D2*
X34263D1*
X13350Y8053D2*
X13398Y8077D1*
X13470Y8148D1*
Y7646D1*
X13768Y8148D2*
X13696Y8124D1*
X13648Y8053D1*
X13624Y7933D1*
Y7861D1*
X13648Y7742D1*
X13696Y7670D1*
X13768Y7646D1*
X13816D1*
X13887Y7670D1*
X13935Y7742D1*
X13959Y7861D1*
Y7933D1*
X13935Y8053D1*
X13887Y8124D1*
X13816Y8148D1*
X13768D1*
X13935Y8053D2*
X13648Y7742D1*
X14114Y8149D2*
Y7646D1*
X14353Y7981D2*
X14114Y7742D1*
X14209Y7838D2*
X14377Y7646D1*
X16673Y25642D2*
X16889D1*
X16960Y25666D1*
X16984Y25690D1*
X17008Y25738D1*
Y25809D1*
X16984Y25857D1*
X16960Y25881D1*
X16889Y25905D1*
X16673D1*
Y25403D1*
X17306Y25905D2*
X17258Y25881D1*
X17210Y25833D1*
X17186Y25786D1*
X17162Y25714D1*
Y25594D1*
X17186Y25523D1*
X17210Y25475D1*
X17258Y25427D1*
X17306Y25403D1*
X17402D1*
X17449Y25427D1*
X17497Y25475D1*
X17521Y25523D1*
X17545Y25594D1*
Y25714D1*
X17521Y25786D1*
X17497Y25833D1*
X17449Y25881D1*
X17402Y25905D1*
X17306D1*
X17867D2*
Y25403D1*
X17699Y25905D2*
X18034D1*
X18188Y25320D2*
X18643D1*
X19180Y25403D2*
X18988Y25905D1*
X18797Y25403D1*
X18869Y25570D2*
X19108D1*
X19359Y25785D2*
Y25809D1*
X19383Y25857D1*
X19406Y25881D1*
X19455Y25905D1*
X19550D1*
X19598Y25881D1*
X19621Y25857D1*
X19646Y25809D1*
Y25761D1*
X19621Y25713D1*
X19574Y25642D1*
X19335Y25403D1*
X19670D1*
X22656Y25704D2*
X22871D1*
X22943Y25728D1*
X22967Y25752D1*
X22991Y25800D1*
Y25872D1*
X22967Y25919D1*
X22943Y25944D1*
X22871Y25967D1*
X22656D1*
Y25465D1*
X23289Y25967D2*
X23241Y25944D1*
X23193Y25895D1*
X23169Y25848D1*
X23145Y25776D1*
Y25656D1*
X23169Y25585D1*
X23193Y25537D1*
X23241Y25489D1*
X23289Y25465D1*
X23384D1*
X23432Y25489D1*
X23480Y25537D1*
X23504Y25585D1*
X23527Y25656D1*
Y25776D1*
X23504Y25848D1*
X23480Y25895D1*
X23432Y25944D1*
X23384Y25967D1*
X23289D1*
X23849D2*
Y25465D1*
X23682Y25967D2*
X24017D1*
X24171Y25382D2*
X24626D1*
X25163Y25465D2*
X24971Y25967D1*
X24780Y25465D1*
X24852Y25632D2*
X25091D1*
X25317Y25871D2*
X25365Y25895D1*
X25437Y25967D1*
Y25465D1*
X28298Y25704D2*
X28513D1*
X28585Y25728D1*
X28609Y25752D1*
X28633Y25800D1*
Y25872D1*
X28609Y25919D1*
X28585Y25944D1*
X28513Y25967D1*
X28298D1*
Y25465D1*
X28931Y25967D2*
X28883Y25944D1*
X28835Y25895D1*
X28811Y25848D1*
X28787Y25776D1*
Y25656D1*
X28811Y25585D1*
X28835Y25537D1*
X28883Y25489D1*
X28931Y25465D1*
X29026D1*
X29074Y25489D1*
X29122Y25537D1*
X29146Y25585D1*
X29170Y25656D1*
Y25776D1*
X29146Y25848D1*
X29122Y25895D1*
X29074Y25944D1*
X29026Y25967D1*
X28931D1*
X29491D2*
Y25465D1*
X29324Y25967D2*
X29659D1*
X29813Y25382D2*
X30268D1*
X30805Y25465D2*
X30613Y25967D1*
X30422Y25465D1*
X30494Y25632D2*
X30733D1*
X31103Y25967D2*
X31031Y25943D1*
X30983Y25871D1*
X30959Y25752D1*
Y25680D1*
X30983Y25560D1*
X31031Y25489D1*
X31103Y25465D1*
X31151D1*
X31222Y25489D1*
X31270Y25560D1*
X31294Y25680D1*
Y25752D1*
X31270Y25871D1*
X31222Y25943D1*
X31151Y25967D1*
X31103D1*
X31270Y25871D2*
X30983Y25560D1*
X25668Y10479D2*
X25716Y10503D1*
X25788Y10574D1*
Y10072D1*
X25943Y10575D2*
Y10072D1*
X26182Y10407D2*
X25943Y10168D1*
X26038Y10264D2*
X26206Y10072D1*
X14197Y18975D2*
X14172Y19023D1*
X14101Y19095D1*
X14603D1*
X14101Y19393D2*
X14125Y19321D1*
X14197Y19273D1*
X14316Y19249D1*
X14388D1*
X14507Y19273D1*
X14579Y19321D1*
X14603Y19393D1*
Y19440D1*
X14579Y19512D1*
X14507Y19560D1*
X14388Y19584D1*
X14316D1*
X14197Y19560D1*
X14125Y19512D1*
X14101Y19440D1*
Y19393D1*
X14197Y19560D2*
X14507Y19273D1*
X14100Y19738D2*
X14603D1*
X14268Y19978D2*
X14507Y19738D1*
X14412Y19834D2*
X14603Y20002D1*
X10697Y18975D2*
X10672Y19023D1*
X10601Y19095D1*
X11103D1*
X10601Y19393D2*
X10625Y19321D1*
X10697Y19273D1*
X10816Y19249D1*
X10888D1*
X11007Y19273D1*
X11079Y19321D1*
X11103Y19393D1*
Y19440D1*
X11079Y19512D1*
X11007Y19560D1*
X10888Y19584D1*
X10816D1*
X10697Y19560D1*
X10625Y19512D1*
X10601Y19440D1*
Y19393D1*
X10697Y19560D2*
X11007Y19273D1*
X10600Y19738D2*
X11103D1*
X10768Y19978D2*
X11007Y19738D1*
X10912Y19834D2*
X11103Y20002D1*
X7197Y18975D2*
X7172Y19023D1*
X7101Y19095D1*
X7603D1*
X7101Y19393D2*
X7125Y19321D1*
X7197Y19273D1*
X7316Y19249D1*
X7388D1*
X7507Y19273D1*
X7579Y19321D1*
X7603Y19393D1*
Y19440D1*
X7579Y19512D1*
X7507Y19560D1*
X7388Y19584D1*
X7316D1*
X7197Y19560D1*
X7125Y19512D1*
X7101Y19440D1*
Y19393D1*
X7197Y19560D2*
X7507Y19273D1*
X7100Y19738D2*
X7603D1*
X7268Y19978D2*
X7507Y19738D1*
X7412Y19834D2*
X7603Y20002D1*
X9004Y7941D2*
X9219D1*
X9291Y7965D1*
X9315Y7989D1*
X9339Y8037D1*
Y8085D1*
X9315Y8132D1*
X9291Y8156D1*
X9219Y8180D1*
X9004D1*
Y7678D1*
X9171Y7941D2*
X9339Y7678D1*
X9804Y8180D2*
X9493D1*
Y7678D1*
X9804D1*
X9493Y7941D2*
X9684D1*
X10293Y8108D2*
X10246Y8156D1*
X10174Y8180D1*
X10078D1*
X10006Y8156D1*
X9958Y8108D1*
Y8061D1*
X9982Y8013D1*
X10006Y7989D1*
X10054Y7965D1*
X10197Y7917D1*
X10246Y7893D1*
X10269Y7869D1*
X10293Y7822D1*
Y7750D1*
X10246Y7702D1*
X10174Y7678D1*
X10078D1*
X10006Y7702D1*
X9958Y7750D1*
X10758Y8180D2*
X10447D1*
Y7678D1*
X10758D1*
X10447Y7941D2*
X10639D1*
X11080Y8180D2*
Y7678D1*
X10912Y8180D2*
X11247D1*
X8259Y26169D2*
Y25667D1*
X8427D1*
X8498Y25691D1*
X8546Y25739D1*
X8570Y25787D1*
X8594Y25858D1*
Y25978D1*
X8570Y26050D1*
X8546Y26097D1*
X8498Y26145D1*
X8427Y26169D1*
X8259D1*
X8748D2*
Y25667D1*
X8903Y25906D2*
X9118D1*
X9190Y25930D1*
X9214Y25954D1*
X9238Y26002D1*
Y26074D1*
X9214Y26121D1*
X9190Y26145D1*
X9118Y26169D1*
X8903D1*
Y25667D1*
X9392Y25584D2*
X9846D1*
X10336Y26097D2*
X10288Y26145D1*
X10216Y26169D1*
X10121D1*
X10049Y26145D1*
X10001Y26097D1*
Y26050D1*
X10025Y26002D1*
X10049Y25978D1*
X10096Y25954D1*
X10240Y25906D1*
X10288Y25882D1*
X10312Y25858D1*
X10336Y25811D1*
Y25739D1*
X10288Y25691D1*
X10216Y25667D1*
X10121D1*
X10049Y25691D1*
X10001Y25739D1*
X10490Y26169D2*
X10610Y25667D1*
X10729Y26169D1*
X10849Y25667D1*
X10969Y26169D1*
X11123D2*
Y25667D1*
X11445Y26169D2*
Y25667D1*
X11278Y26169D2*
X11613D1*
X12126Y26050D2*
X12102Y26097D1*
X12054Y26145D1*
X12006Y26169D1*
X11911D1*
X11863Y26145D1*
X11815Y26097D1*
X11791Y26050D1*
X11767Y25978D1*
Y25858D1*
X11791Y25787D1*
X11815Y25739D1*
X11863Y25691D1*
X11911Y25667D1*
X12006D1*
X12054Y25691D1*
X12102Y25739D1*
X12126Y25787D1*
X12280Y26169D2*
Y25667D1*
X12615Y26169D2*
Y25667D1*
X12280Y25930D2*
X12615D1*
X11996Y12220D2*
X11493Y12028D1*
X11996Y11837D1*
X11828Y11909D2*
Y12148D1*
X11493Y12542D2*
X11996D1*
X11493Y12374D2*
Y12709D1*
X11996Y13246D2*
X11493D1*
X11996Y13055D1*
X11493Y12864D1*
X11996D1*
X11804Y13400D2*
Y13687D1*
X11756D1*
X11708Y13664D1*
X11684Y13640D1*
X11661Y13592D1*
Y13520D1*
X11684Y13472D1*
X11732Y13424D1*
X11804Y13400D1*
X11852D1*
X11924Y13424D1*
X11971Y13472D1*
X11996Y13520D1*
Y13592D1*
X11971Y13640D1*
X11924Y13687D1*
X11684Y14129D2*
X12067D1*
X12139Y14105D1*
X12163Y14081D1*
X12187Y14033D1*
Y13961D1*
X12163Y13914D1*
X11756Y14129D2*
X11709Y14081D1*
X11684Y14033D1*
Y13961D1*
X11709Y13914D1*
X11756Y13865D1*
X11828Y13842D1*
X11876D1*
X11947Y13865D1*
X11996Y13914D1*
X12019Y13961D1*
Y14033D1*
X11996Y14081D1*
X11947Y14129D1*
X11661Y14570D2*
X11996D1*
X11732D2*
X11684Y14522D1*
X11661Y14474D1*
Y14403D1*
X11684Y14355D1*
X11732Y14307D1*
X11804Y14283D1*
X11852D1*
X11924Y14307D1*
X11971Y14355D1*
X11996Y14403D1*
Y14474D1*
X11971Y14522D1*
X11924Y14570D1*
X11494Y14772D2*
Y15035D1*
X11685Y14892D1*
Y14963D1*
X11709Y15011D1*
X11732Y15035D1*
X11804Y15059D1*
X11852D1*
X11924Y15035D1*
X11972Y14987D1*
X11996Y14915D1*
Y14844D1*
X11972Y14772D1*
X11947Y14748D1*
X11900Y14724D1*
X11613Y15238D2*
X11589D1*
X11541Y15262D1*
X11517Y15285D1*
X11494Y15333D1*
Y15429D1*
X11517Y15477D1*
X11541Y15500D1*
X11589Y15525D1*
X11637D1*
X11685Y15500D1*
X11756Y15453D1*
X11996Y15213D1*
Y15548D1*
X11494Y15822D2*
X11517Y15751D1*
X11565Y15727D1*
X11613D1*
X11661Y15751D1*
X11685Y15798D1*
X11709Y15894D1*
X11732Y15966D1*
X11781Y16013D1*
X11828Y16037D1*
X11900D1*
X11947Y16013D1*
X11972Y15990D1*
X11996Y15918D1*
Y15822D1*
X11972Y15751D1*
X11947Y15727D1*
X11900Y15703D1*
X11828D1*
X11781Y15727D1*
X11732Y15775D1*
X11709Y15846D1*
X11685Y15942D1*
X11661Y15990D1*
X11613Y16013D1*
X11565D1*
X11517Y15990D1*
X11494Y15918D1*
Y15822D1*
X28369Y18635D2*
Y19138D1*
X28178Y18635D1*
X27987Y19138D1*
Y18635D1*
X28907D2*
X28715Y19138D1*
X28524Y18635D1*
X28596Y18803D2*
X28835D1*
X29061Y19138D2*
X29396Y18635D1*
Y19138D2*
X29061Y18635D1*
X29790D2*
Y19137D1*
X29550Y18803D1*
X29909D1*
X30183Y19137D2*
X30112Y19113D1*
X30087Y19066D1*
Y19018D1*
X30112Y18970D1*
X30159Y18946D1*
X30255Y18922D1*
X30327Y18898D1*
X30374Y18850D1*
X30398Y18803D1*
Y18731D1*
X30374Y18683D1*
X30350Y18659D1*
X30278Y18635D1*
X30183D1*
X30112Y18659D1*
X30087Y18683D1*
X30063Y18731D1*
Y18803D1*
X30087Y18850D1*
X30135Y18898D1*
X30207Y18922D1*
X30302Y18946D1*
X30350Y18970D1*
X30374Y19018D1*
Y19066D1*
X30350Y19113D1*
X30278Y19137D1*
X30183D1*
X30839D2*
X30600D1*
X30577Y18922D1*
X30600Y18946D1*
X30672Y18970D1*
X30744D1*
X30815Y18946D1*
X30863Y18898D1*
X30887Y18827D1*
Y18779D1*
X30863Y18707D1*
X30815Y18659D1*
X30744Y18635D1*
X30672D1*
X30600Y18659D1*
X30577Y18683D1*
X30552Y18731D1*
X20473Y10923D2*
X20521Y10947D1*
X20593Y11019D1*
Y10517D1*
X21034Y10947D2*
X21010Y10995D1*
X20938Y11019D1*
X20891D1*
X20819Y10995D1*
X20771Y10923D1*
X20747Y10804D1*
Y10684D1*
X20771Y10589D1*
X20819Y10541D1*
X20891Y10517D1*
X20915D1*
X20986Y10541D1*
X21034Y10589D1*
X21058Y10661D1*
Y10684D1*
X21034Y10756D1*
X20986Y10804D1*
X20915Y10827D1*
X20891D1*
X20819Y10804D1*
X20771Y10756D1*
X20747Y10684D1*
X21595Y10517D2*
Y11019D1*
X21403Y10517D1*
X21212Y11019D1*
Y10517D1*
X21749Y11019D2*
Y10517D1*
X22084Y11019D2*
Y10517D1*
X21749Y10780D2*
X22084D1*
X22238Y10852D2*
X22501D1*
X22238Y10517D1*
X22501D1*
X7523Y17403D2*
X7738D1*
X7810Y17427D1*
X7835Y17451D1*
X7858Y17499D1*
Y17547D1*
X7835Y17594D1*
X7810Y17619D1*
X7738Y17642D1*
X7523D1*
Y17140D1*
X7691Y17403D2*
X7858Y17140D1*
X8348Y17571D2*
X8300Y17619D1*
X8228Y17642D1*
X8133D1*
X8061Y17619D1*
X8013Y17571D1*
Y17523D1*
X8037Y17475D1*
X8061Y17451D1*
X8108Y17427D1*
X8252Y17379D1*
X8300Y17356D1*
X8324Y17331D1*
X8348Y17284D1*
Y17212D1*
X8300Y17164D1*
X8228Y17140D1*
X8133D1*
X8061Y17164D1*
X8013Y17212D1*
X8670Y17642D2*
Y17140D1*
X8502Y17642D2*
X8837D1*
X32637Y16370D2*
D82*
X31632Y15987D1*
X32637Y15604D1*
X32302Y15748D2*
Y16227D1*
X31584Y17527D2*
X32589D1*
Y17959D1*
X32540Y18102D1*
X32493Y18150D1*
X32398Y18197D1*
X32254D1*
X32158Y18150D1*
X32110Y18102D1*
X32063Y17959D1*
X32014Y18102D1*
X31967Y18150D1*
X31872Y18197D1*
X31776D1*
X31680Y18150D1*
X31632Y18102D1*
X31584Y17959D1*
Y17527D1*
X32063D2*
Y17959D1*
X7898Y16528D2*
D81*
X8113D1*
X8185Y16552D1*
X8210Y16576D1*
X8233Y16624D1*
Y16672D1*
X8210Y16719D1*
X8185Y16744D1*
X8113Y16767D1*
X7898D1*
Y16265D1*
X8066Y16528D2*
X8233Y16265D1*
X8388Y16767D2*
X8723Y16265D1*
Y16767D2*
X8388Y16265D1*
X8066Y15767D2*
Y15265D1*
X7898Y15767D2*
X8233D1*
X8388D2*
X8723Y15265D1*
Y15767D2*
X8388Y15265D1*
X7273Y14767D2*
X7465Y14265D1*
X7656Y14767D1*
X8169Y14648D2*
X8145Y14696D1*
X8097Y14744D1*
X8050Y14767D1*
X7954D1*
X7906Y14744D1*
X7858Y14696D1*
X7834Y14648D1*
X7810Y14576D1*
Y14456D1*
X7834Y14385D1*
X7858Y14337D1*
X7906Y14289D1*
X7954Y14265D1*
X8050D1*
X8097Y14289D1*
X8145Y14337D1*
X8169Y14385D1*
X8682Y14648D2*
X8658Y14696D1*
X8610Y14744D1*
X8563Y14767D1*
X8467D1*
X8419Y14744D1*
X8371Y14696D1*
X8347Y14648D1*
X8323Y14576D1*
Y14456D1*
X8347Y14385D1*
X8371Y14337D1*
X8419Y14289D1*
X8467Y14265D1*
X8563D1*
X8610Y14289D1*
X8658Y14337D1*
X8682Y14385D1*
X8233Y13767D2*
Y13265D1*
X7898Y13767D1*
Y13265D1*
X8746Y13648D2*
X8723Y13696D1*
X8675Y13744D1*
X8627Y13767D1*
X8531D1*
X8483Y13744D1*
X8436Y13696D1*
X8412Y13648D1*
X8388Y13576D1*
Y13456D1*
X8412Y13385D1*
X8436Y13337D1*
X8483Y13289D1*
X8531Y13265D1*
X8627D1*
X8675Y13289D1*
X8723Y13337D1*
X8746Y13385D1*
X7757Y12523D2*
X7733Y12571D1*
X7685Y12619D1*
X7638Y12642D1*
X7542D1*
X7494Y12619D1*
X7446Y12571D1*
X7422Y12523D1*
X7398Y12451D1*
Y12331D1*
X7422Y12260D1*
X7446Y12212D1*
X7494Y12164D1*
X7542Y12140D1*
X7638D1*
X7685Y12164D1*
X7733Y12212D1*
X7757Y12260D1*
Y12331D1*
X7638D1*
X8246Y12642D2*
Y12140D1*
X7912Y12642D1*
Y12140D1*
X8401Y12642D2*
Y12140D1*
X8568D1*
X8640Y12164D1*
X8688Y12212D1*
X8712Y12260D1*
X8736Y12331D1*
Y12451D1*
X8712Y12523D1*
X8688Y12571D1*
X8640Y12619D1*
X8568Y12642D1*
X8401D1*
M02*
